<svg xmlns="http://www.w3.org/2000/svg" version="1.1" xmlns:xlink="http://www.w3.org/1999/xlink" width="1500" height="1500" viewBox="0 0 1500 1500"><rect width="1500" height="1500" x="0" y="0" id="background" stroke="transparent" fill="#ffffff"></rect><svg xml:space="preserve" width="1000" height="1000" data-version="2" data-id="lg_MyYHVvilEiMKmRWqX0" viewBox="0 0 794 448" x="250" y="250"><rect width="100%" height="100%" fill="transparent"></rect><path fill="#001f3e" d="M100.846 349.16H53.672v24.21h47.174zm-45.899 22.935v-21.66H74.82l-18.24 21.66zm7.495 0 18.24-21.66h4.706l-18.235 21.66zm37.126 0h-29.3l18.235-21.66H99.57v21.66z"></path><path fill="#001f3e" d="M123.159 348.747v-11.35c0-22.934-22.95-22.934-22.95-22.934h-45.9s-22.95 0-22.95 22.935v11.349h-4.358v7.22h4.358v61.704c0 22.935 45.899 22.935 45.899 22.935s45.9 0 45.9-22.935v-61.705h4.356v-7.219zm-20.397 26.534H51.76v-28.033h51.003zm319.388-27.227h13.69l1.06 5.79q2.83-2.95 6.79-4.78 3.95-1.83 8.67-1.83 5.66 0 10.38 2.42 4.72 2.42 7.56 6.9 3.18-4.37 8.32-6.84 5.13-2.48 11.15-2.48 6.96 0 12.09 2.95t7.97 8.55q2.83 5.61 2.83 13.87v34.45h-15.11v-32.45q0-6.72-2.95-10.14-2.95-3.43-8.37-3.43-5.55 0-8.68 3.49-3.12 3.48-3.12 10.32v32.21h-15.11v-32.45q0-6.72-2.65-10.14-2.66-3.43-8.09-3.43-5.54 0-8.43 3.49-2.89 3.48-2.89 10.2v32.33h-15.11Z"></path><rect width="90.51" height="59.82" x="-45.26" y="-29.91" fill="none" rx="0" ry="0" transform="translate(467.9 377.64)"></rect><path fill="#001f3e" d="m562.93 407.054-1.18-7.19q-2.95 3.65-6.67 5.78-3.72 2.12-9.97 2.12-5.9 0-10.33-2.06-4.42-2.07-6.9-5.78-2.48-3.72-2.48-8.8 0-7.43 5.37-12.33 5.37-4.89 16.23-6.19l14.75-1.65v-4.13q0-2.48-2.25-4.61-2.24-2.12-7.08-2.12-4.24 0-7.37 2.07-3.13 2.06-4.19 6.19l-12.98-4.72q2.36-7.91 8.97-12.15 6.61-4.25 16.28-4.25 11.8 0 17.76 5.84 5.96 5.84 5.96 15.4v38.58Zm-1.18-25.6-12.75 1.65q-3.89.47-5.9 2.3-2 1.83-2 4.43 0 2.47 2 4.19 2.01 1.71 5.67 1.71 4.13 0 7.02-1.54 2.89-1.53 4.42-4.48 1.54-2.95 1.54-7.32Z"></path><rect width="51.45" height="60.53" x="-25.73" y="-30.27" fill="none" rx="0" ry="0" transform="translate(551.63 378)"></rect><path fill="#001f3e" d="M592.54 348.054h13.69l1.06 6.02q2.84-3.18 6.91-5.01 4.07-1.83 8.79-1.83 6.96 0 11.86 2.95 4.89 2.95 7.55 8.55 2.65 5.61 2.65 13.87v34.45h-15.22v-32.45q0-6.84-2.71-10.26-2.72-3.42-8.14-3.42-5.55 0-8.44 3.48-2.89 3.48-2.89 10.32v32.33h-15.11Z"></path><rect width="52.51" height="59.82" x="-26.25" y="-29.91" fill="none" rx="0" ry="0" transform="translate(619.3 377.64)"></rect><path fill="#001f3e" d="m703.46 356.904-1.88.24v-35.05h15.1v84.96h-13.69l-.94-7.31q-2.83 3.3-7.49 5.72-4.67 2.42-10.8 2.42-7.67 0-13.57-3.78-5.9-3.77-9.21-10.56-3.3-6.78-3.3-15.99 0-9.2 3.3-16.04 3.31-6.85 9.21-10.56 5.9-3.72 13.57-3.72 6.96 0 11.98 2.83 5.01 2.83 7.72 6.84m-29.61 20.65q0 7.44 3.83 11.98 3.84 4.54 9.97 4.54 3.78 0 6.91-1.94 3.12-1.95 5.07-5.61 1.95-3.66 1.95-8.97 0-5.31-1.95-8.96-1.95-3.66-5.07-5.61-3.13-1.95-6.91-1.95-6.13 0-9.97 4.55-3.83 4.54-3.83 11.97"></path><rect width="59" height="85.79" x="-29.5" y="-42.9" fill="none" rx="0" ry="0" transform="translate(687.68 365.49)"></rect><path fill="#001f3e" d="M784.88 407.054h-13.8l-.95-6.13q-2.95 3.3-7.02 5.13-4.07 1.83-8.67 1.83-6.84 0-11.8-2.95-4.96-2.95-7.67-8.55-2.71-5.61-2.71-13.87v-34.46h15.22v32.57q0 6.73 2.65 10.21 2.66 3.48 8.2 3.48 5.55 0 8.5-3.54t2.95-10.27v-32.45h15.1Z"></path><rect width="52.62" height="59.83" x="-26.31" y="-29.91" fill="none" rx="0" ry="0" transform="translate(759.07 378.47)"></rect><path fill="#001f3e" d="M133.636 314.464h280.198V435.04H133.635z"></path><g transform="translate(192.97 374.96)"><linearGradient id="a" x1="0" x2="-.03" y1="0" y2="0" gradientUnits="objectBoundingBox"><stop offset="0%" stop-color="#cbcbcb"></stop><stop offset="49.8%" stop-color="#fff"></stop><stop offset="100%" stop-color="#cbcbcb"></stop></linearGradient><path fill="url(#a)" d="M162.59 402.62h-12.42v-64.4h14.17l20.52 48.21 20.51-48.21h14.17v64.4h-12.42v-41.58l-17.39 41.58h-9.75l-17.39-41.58Z" transform="translate(-184.85 -370.42)"></path></g><rect width="69.37" height="64.4" x="-34.69" y="-32.2" fill="none" rx="0" ry="0" transform="translate(193.47 375.46)"></rect><path fill="#001f3e" d="M715.994 285.853a6.743 6.284 0 0 0-6.82.265l5.92 1.828zm-4.342 11.735a3.601 3.356 0 0 1 .165-2l1.829-4.263-7.11-2.19a6.743 6.284 0 0 0 5.116 8.453"></path><path fill="#001f3e" d="M716.976 300.479a.344.32 0 0 0 .37-.197l2.96-6.9-3.019-.932a.714.666 0 0 1-.453-.841l.777-2.188a.714.666 0 0 1 .903-.422l3.244 1.001.999-2.324a.026.025 0 0 0-.033-.033l-5.622-2.096a.026.025 0 0 0-.04.012l-1.465 3.421-8.826-2.724-.662 1.849a.026.025 0 0 0 .033.03l8.681 2.679-2.182 5.085a2.708 2.524 0 0 0 .48 2.598c.995 1.06 2.36 1.76 3.852 1.982z"></path><path fill="#001f3e" d="m717.74 291.714 2.9.894.787-1.834-3.026-.934zm8.036 17.7-3.095 4.925-7.124-3.104a.92.857 0 0 1-.509-.598l-1.905-8.383a.447.416 0 0 1 .873-.175l1.905 8.386a.026.025 0 0 0 .033.018l.48.21v-4.346a9.435 8.793 0 0 0-9.435-8.793h-.036c-2.977 0-5.39 2.25-5.39 5.024v18.14a.185.173 0 0 0 .184.173h14.492a.185.173 0 0 0 .185-.172v-3.107l-4.12-1.794a3.601 3.356 0 0 1-1.889-1.975l-3.833-10.67a.448.418 0 0 1 .85-.265l3.826 10.67a2.708 2.524 0 0 0 1.422 1.488l7.5 3.267-.304.487a1.584 1.476 0 0 0 2.729 1.492l.456-.725.39.17a2.47 2.302 0 0 0 2.117-4.16l2.95-4.692a1.584 1.476 0 0 0-.215-1.756l4.027-6.408a.026.025 0 0 1 .034-.012l4.553-.91a.446.416 0 0 0-.185-.81l-4.554.906a.92.857 0 0 0-.602.407l-4.027 6.408a1.584 1.476 0 0 0-1.747.684z"></path><g transform="translate(261 383.95)"><linearGradient id="b" x1="0" x2="2.09" y1="0" y2="0" gradientUnits="objectBoundingBox"><stop offset="0%" stop-color="#c2c2c2"></stop><stop offset="49.8%" stop-color="#fff"></stop><stop offset="100%" stop-color="#c2c2c2"></stop></linearGradient><path fill="url(#b)" d="M253.64 402.54q-6.75 0-11.88-2.97-5.13-2.97-7.97-8.28-2.83-5.31-2.83-12.24 0-6.66 2.83-11.79 2.84-5.13 7.79-8.06 4.95-2.92 11.34-2.92 6.48 0 11.43 2.79 4.95 2.79 7.69 7.78 2.75 5 2.75 11.66 0 .99-.14 2.2-.13 1.22-.31 2.57h-30.96q.36 2.88 1.84 4.9 1.49 2.03 3.69 3.15 2.21 1.13 5 1.13 3.33 0 5.98-1.35 2.66-1.35 3.83-3.69l10.17 3.06q-2.7 5.76-8.01 8.91-5.31 3.15-12.24 3.15m8.55-27.63q-.09-2.52-1.35-4.55-1.26-2.02-3.33-3.15-2.07-1.12-4.59-1.12-2.25 0-4.23 1.12-1.98 1.13-3.38 3.11-1.39 1.98-1.84 4.59Z" transform="translate(-252.88 -379.41)"></path></g><rect width="43.83" height="46.26" x="-21.91" y="-23.13" fill="none" rx="0" ry="0" transform="translate(261.5 384.45)"></rect><g transform="translate(303.75 377.81)"><linearGradient id="c" x1="-1.46" x2="2.06" y1="0" y2="0" gradientUnits="objectBoundingBox"><stop offset="0%" stop-color="#c2c2c2"></stop><stop offset="49.8%" stop-color="#fff"></stop><stop offset="100%" stop-color="#c2c2c2"></stop></linearGradient><path fill="url(#c)" d="M288.02 356.91v-12.6h11.61v12.6h9.99v10.17h-9.99v18.27q0 3.51 1.53 4.95 1.53 1.44 3.82 1.53 2.3.09 4.64-.27v9.9q-4.14.9-8.06.54-3.91-.36-6.97-2.12-3.06-1.75-4.82-5.35-1.75-3.6-1.75-9.18v-18.27h-6.39v-10.17Z" transform="translate(-295.63 -373.27)"></path></g><rect width="27.99" height="57.91" x="-13.99" y="-28.96" fill="none" rx="0" ry="0" transform="translate(304.25 378.31)"></rect><g transform="translate(345.64 383.91)"><linearGradient id="d" x1="-1.74" x2=".46" y1="0" y2="0" gradientUnits="objectBoundingBox"><stop offset="0%" stop-color="#c2c2c2"></stop><stop offset="49.8%" stop-color="#fff"></stop><stop offset="100%" stop-color="#c2c2c2"></stop></linearGradient><path fill="url(#d)" d="m346.52 401.91-.9-5.49q-2.25 2.79-5.09 4.41-2.83 1.62-7.6 1.62-4.5 0-7.88-1.58-3.37-1.57-5.26-4.41-1.89-2.83-1.89-6.7 0-5.67 4.09-9.41 4.1-3.73 12.38-4.72l11.25-1.26v-3.15q0-1.89-1.71-3.51-1.71-1.62-5.4-1.62-3.24 0-5.63 1.57-2.38 1.58-3.19 4.73l-9.9-3.6q1.8-6.03 6.84-9.27 5.04-3.24 12.42-3.24 9 0 13.54 4.45 4.55 4.46 4.55 11.75v29.43Zm-.9-19.53-9.72 1.26q-2.97.36-4.5 1.75-1.53 1.4-1.53 3.38 0 1.89 1.53 3.19 1.53 1.31 4.32 1.31 3.15 0 5.35-1.17 2.21-1.17 3.38-3.42t1.17-5.58Z" transform="translate(-337.52 -379.37)"></path></g><rect width="39.24" height="46.17" x="-19.62" y="-23.09" fill="none" rx="0" ry="0" transform="translate(346.14 384.41)"></rect><g transform="translate(383.8 374.05)"><linearGradient id="e" x1="-5.5" x2="-.09" y1="0" y2="0" gradientUnits="objectBoundingBox"><stop offset="0%" stop-color="#c2c2c2"></stop><stop offset="49.8%" stop-color="#fff"></stop><stop offset="100%" stop-color="#c2c2c2"></stop></linearGradient><path fill="url(#e)" d="M369.92 337.11h11.52v64.8h-11.52Z" transform="translate(-375.68 -369.51)"></path></g><rect width="11.52" height="64.8" x="-5.76" y="-32.4" fill="none" rx="0" ry="0" transform="translate(384.3 374.55)"></rect><path fill="#001f3e" d="M426.92 432.144h-1.49v-12.85h7.15v1.32h-5.66v4.71h5.32v1.31h-5.32Z"></path><rect width="7.15" height="12.85" x="-3.58" y="-6.42" fill="none" rx="0" ry="0" transform="translate(429.5 426.22)"></rect><path fill="#001f3e" d="M439.72 422.354q1.72 0 2.56.77.83.78.83 2.47v6.55h-1.06l-.28-1.42h-.07q-.41.52-.85.88t-1.01.54q-.58.18-1.41.18-.88 0-1.56-.31t-1.08-.93q-.39-.63-.39-1.58 0-1.45 1.15-2.22 1.14-.77 3.48-.84l1.66-.07v-.59q0-1.25-.54-1.75-.53-.5-1.51-.5-.76 0-1.44.22-.69.22-1.3.52l-.45-1.11q.65-.34 1.49-.57.85-.24 1.78-.24m1.95 5.04-1.47.07q-1.8.07-2.54.59-.74.51-.74 1.46 0 .83.51 1.22.5.4 1.32.4 1.29 0 2.1-.71.82-.71.82-2.14Z"></path><rect width="7.71" height="9.97" x="-3.85" y="-4.99" fill="none" rx="0" ry="0" transform="translate(439.75 427.84)"></rect><path fill="#001f3e" d="M449.2 418.464v3.42q0 .59-.03 1.15-.03.55-.05.86h.08q.39-.65 1.14-1.1.75-.45 1.91-.45 1.81 0 2.88 1.25 1.08 1.26 1.08 3.73 0 1.62-.49 2.74-.49 1.11-1.39 1.69-.9.57-2.12.57-1.14 0-1.88-.43-.73-.43-1.12-1.04h-.12l-.3 1.29h-1.05v-13.68Zm2.81 5.1q-1.05 0-1.66.41-.62.41-.89 1.23-.26.82-.26 2.08v.08q0 1.82.6 2.78.61.96 2.21.96 1.34 0 2.02-.98.67-.99.67-2.81 0-1.87-.66-2.81-.67-.94-2.03-.94"></path><rect width="8.47" height="13.86" x="-4.24" y="-6.93" fill="none" rx="0" ry="0" transform="translate(452.48 425.9)"></rect><path fill="#001f3e" d="M464.75 422.334q.29 0 .6.03.32.03.57.09l-.19 1.35q-.24-.06-.53-.1-.29-.03-.54-.03-.58 0-1.09.23-.52.23-.91.67-.38.43-.6 1.04-.22.62-.22 1.36v5.17h-1.47v-9.63h1.21l.16 1.77h.06q.3-.53.72-.98.43-.44.98-.7.56-.27 1.25-.27"></path><rect width="5.55" height="9.81" x="-2.77" y="-4.91" fill="none" rx="0" ry="0" transform="translate(463.64 427.74)"></rect><path fill="#001f3e" d="M470.81 422.514v9.63h-1.46v-9.63Zm-.72-3.61q.36 0 .62.24.26.23.26.72t-.26.72q-.26.24-.62.24-.37 0-.62-.24-.25-.23-.25-.72t.25-.72q.25-.24.62-.24"></path><rect width="1.75" height="13.24" x="-.88" y="-6.62" fill="none" rx="0" ry="0" transform="translate(470.6 426.02)"></rect><path fill="#001f3e" d="M479.37 432.324q-1.3 0-2.29-.54-1-.54-1.55-1.63-.56-1.1-.56-2.77 0-1.75.59-2.86.58-1.12 1.61-1.65 1.03-.54 2.34-.54.72 0 1.39.15.68.14 1.11.36l-.44 1.22q-.44-.17-1.02-.31-.57-.14-1.08-.14-1 0-1.66.43-.66.43-.99 1.26-.33.84-.33 2.06 0 1.17.32 1.99.32.83.96 1.27.63.43 1.59.43.77 0 1.38-.16.62-.16 1.12-.38v1.3q-.49.24-1.08.37-.59.14-1.41.14"></path><rect width="7.04" height="9.99" x="-3.52" y="-5" fill="none" rx="0" ry="0" transform="translate(478.99 427.83)"></rect><path fill="#001f3e" d="M489.36 422.354q1.72 0 2.55.77.84.78.84 2.47v6.55h-1.06l-.29-1.42h-.07q-.4.52-.84.88-.44.36-1.01.54-.58.18-1.42.18-.87 0-1.56-.31-.68-.31-1.07-.93-.39-.63-.39-1.58 0-1.45 1.14-2.22 1.15-.77 3.48-.84l1.67-.07v-.59q0-1.25-.54-1.75t-1.51-.5q-.76 0-1.44.22-.69.22-1.3.52l-.45-1.11q.65-.34 1.49-.57.84-.24 1.78-.24m1.95 5.04-1.47.07q-1.8.07-2.54.59-.74.51-.74 1.46 0 .83.5 1.22.5.4 1.33.4 1.28 0 2.1-.71.82-.71.82-2.14Z"></path><rect width="7.71" height="9.97" x="-3.85" y="-4.99" fill="none" rx="0" ry="0" transform="translate(489.4 427.84)"></rect><path fill="#001f3e" d="M500.49 431.124q.36 0 .73-.06.38-.06.62-.15v1.13q-.26.12-.71.2-.45.08-.88.08-.77 0-1.39-.27-.62-.27-1-.91-.37-.64-.37-1.78v-5.71h-1.37v-.71l1.38-.57.58-2.09h.88v2.23h2.82v1.14h-2.82v5.67q0 .9.41 1.35.42.45 1.12.45"></path><rect width="5.72" height="12.04" x="-2.86" y="-6.02" fill="none" rx="0" ry="0" transform="translate(499.48 426.8)"></rect><path fill="#001f3e" d="M506.87 422.514v9.63h-1.46v-9.63Zm-.71-3.61q.36 0 .62.24.26.23.26.72t-.26.72q-.26.24-.62.24-.38 0-.63-.24-.25-.23-.25-.72t.25-.72q.25-.24.63-.24"></path><rect width="1.76" height="13.24" x="-.88" y="-6.62" fill="none" rx="0" ry="0" transform="translate(506.66 426.02)"></rect><path fill="#001f3e" d="M519.88 427.314q0 1.18-.31 2.11-.3.94-.88 1.58-.58.64-1.41.98-.82.34-1.86.34-.96 0-1.77-.34-.8-.34-1.39-.98-.58-.64-.9-1.58-.32-.93-.32-2.11 0-1.59.53-2.7.54-1.11 1.54-1.69 1-.59 2.38-.59 1.31 0 2.3.59.99.59 1.54 1.7.55 1.11.55 2.69m-7.33 0q0 1.16.31 2.01.31.85.95 1.32.64.46 1.65.46 1 0 1.65-.46.64-.47.95-1.32.31-.85.31-2.01 0-1.15-.31-1.99-.31-.84-.95-1.3-.64-.46-1.66-.46-1.5 0-2.2 1-.7.99-.7 2.75"></path><rect width="8.84" height="9.99" x="-4.42" y="-5" fill="none" rx="0" ry="0" transform="translate(515.96 427.83)"></rect><path fill="#001f3e" d="M528.58 422.334q1.72 0 2.6.84.88.84.88 2.7v6.27h-1.45v-6.18q0-1.2-.54-1.8-.55-.6-1.69-.6-1.6 0-2.25.91-.65.9-.65 2.63v5.04h-1.46v-9.63h1.18l.22 1.39h.08q.31-.51.78-.86.48-.35 1.07-.53.58-.18 1.23-.18"></path><rect width="8.04" height="9.81" x="-4.02" y="-4.91" fill="none" rx="0" ry="0" transform="translate(528.54 427.74)"></rect><path fill="#001f3e" d="m538.35 430.054.12.2q-.16.64-.4 1.37-.25.73-.53 1.47-.29.73-.58 1.37h-1.09q.19-.7.36-1.48.18-.78.32-1.54.15-.76.24-1.39Z"></path><rect width="2.6" height="4.41" x="-1.3" y="-2.21" fill="none" rx="0" ry="0" transform="translate(537.67 432.76)"></rect><path fill="#001f3e" d="M548.67 420.424q-1.06 0-1.91.37-.85.36-1.44 1.05-.59.69-.91 1.67-.32.98-.32 2.2 0 1.61.51 2.81.5 1.19 1.51 1.84 1.01.65 2.52.65.86 0 1.62-.15.76-.14 1.48-.36v1.3q-.7.26-1.47.39-.78.13-1.84.13-1.96 0-3.28-.82-1.31-.81-1.96-2.29-.66-1.49-.66-3.51 0-1.46.41-2.67t1.19-2.09q.79-.88 1.94-1.35 1.15-.48 2.63-.48.98 0 1.88.19.91.19 1.64.55l-.6 1.27q-.62-.28-1.35-.49-.73-.21-1.59-.21"></path><rect width="9.69" height="13.21" x="-4.84" y="-6.61" fill="none" rx="0" ry="0" transform="translate(547.87 426.22)"></rect><path fill="#001f3e" d="M564.22 427.314q0 1.18-.3 2.11-.31.94-.89 1.58-.58.64-1.4.98-.83.34-1.86.34-.97 0-1.77-.34-.81-.34-1.39-.98-.59-.64-.91-1.58-.32-.93-.32-2.11 0-1.59.54-2.7.53-1.11 1.53-1.69 1-.59 2.38-.59 1.32 0 2.31.59t1.53 1.7q.55 1.11.55 2.69m-7.33 0q0 1.16.31 2.01.31.85.95 1.32.64.46 1.65.46 1 0 1.65-.46.65-.47.95-1.32.31-.85.31-2.01 0-1.15-.31-1.99-.3-.84-.94-1.3-.65-.46-1.67-.46-1.5 0-2.2 1-.7.99-.7 2.75"></path><rect width="8.84" height="9.99" x="-4.42" y="-5" fill="none" rx="0" ry="0" transform="translate(560.3 427.83)"></rect><path fill="#001f3e" d="M572.93 422.334q1.71 0 2.59.84.88.84.88 2.7v6.27h-1.44v-6.18q0-1.2-.55-1.8-.55-.6-1.68-.6-1.6 0-2.25.91-.65.9-.65 2.63v5.04h-1.46v-9.63h1.17l.22 1.39h.08q.31-.51.78-.86.48-.35 1.07-.53.59-.18 1.24-.18"></path><rect width="8.03" height="9.81" x="-4.01" y="-4.91" fill="none" rx="0" ry="0" transform="translate(572.88 427.74)"></rect><path fill="#001f3e" d="M587.26 429.504q0 .93-.46 1.56-.47.62-1.32.94-.86.32-2.05.32-1.01 0-1.75-.16-.73-.16-1.29-.45v-1.34q.59.29 1.41.52.82.24 1.67.24 1.25 0 1.81-.4.56-.41.56-1.1 0-.4-.22-.7-.23-.3-.75-.59-.53-.29-1.46-.63-.93-.35-1.6-.7-.67-.34-1.04-.85-.36-.5-.36-1.3 0-1.22.99-1.87.99-.66 2.6-.66.87 0 1.63.17.76.17 1.42.46l-.5 1.17q-.59-.25-1.27-.43-.68-.17-1.38-.17-1.01 0-1.55.33-.54.34-.54.92 0 .44.25.73t.8.55q.56.25 1.46.6.91.33 1.57.69.65.35 1.01.86.36.5.36 1.29"></path><rect width="6.87" height="9.99" x="-3.44" y="-5" fill="none" rx="0" ry="0" transform="translate(584.33 427.83)"></rect><path fill="#001f3e" d="M594.33 431.124q.37 0 .74-.06.38-.06.62-.15v1.13q-.26.12-.71.2-.45.08-.88.08-.77 0-1.39-.27-.63-.27-1-.91t-.37-1.78v-5.71h-1.37v-.71l1.38-.57.58-2.09h.88v2.23h2.82v1.14h-2.82v5.67q0 .9.41 1.35.42.45 1.11.45"></path><rect width="5.72" height="12.04" x="-2.86" y="-6.02" fill="none" rx="0" ry="0" transform="translate(593.33 426.8)"></rect><path fill="#001f3e" d="M603.64 422.334q.29 0 .6.03.32.03.57.09l-.19 1.35q-.24-.06-.53-.1-.29-.03-.54-.03-.58 0-1.1.23-.51.23-.9.67-.38.43-.6 1.04-.22.62-.22 1.36v5.17h-1.47v-9.63h1.21l.16 1.77h.06q.3-.53.72-.98.42-.44.98-.7.56-.27 1.25-.27"></path><rect width="5.55" height="9.81" x="-2.77" y="-4.91" fill="none" rx="0" ry="0" transform="translate(602.53 427.74)"></rect><path fill="#001f3e" d="M616.19 422.514v9.63h-1.2l-.21-1.35h-.08q-.29.5-.77.84-.47.34-1.07.52-.59.17-1.26.17-1.14 0-1.91-.37-.78-.37-1.17-1.15-.39-.77-.39-1.98v-6.31h1.48v6.2q0 1.21.54 1.8.55.59 1.66.59 1.08 0 1.71-.4.64-.4.92-1.19.28-.79.28-1.93v-5.07Z"></path><rect width="8.06" height="9.81" x="-4.03" y="-4.91" fill="none" rx="0" ry="0" transform="translate(612.66 427.92)"></rect><path fill="#001f3e" d="M624.75 432.324q-1.3 0-2.29-.54t-1.55-1.63q-.55-1.1-.55-2.77 0-1.75.58-2.86.59-1.12 1.62-1.65 1.02-.54 2.33-.54.72 0 1.4.15.67.14 1.1.36l-.44 1.22q-.44-.17-1.01-.31-.58-.14-1.08-.14-1 0-1.67.43-.66.43-.99 1.26-.33.84-.33 2.06 0 1.17.32 1.99.32.83.96 1.27.64.43 1.59.43.77 0 1.38-.16.62-.16 1.12-.38v1.3q-.48.24-1.08.37-.59.14-1.41.14"></path><rect width="7.03" height="9.99" x="-3.52" y="-5" fill="none" rx="0" ry="0" transform="translate(624.38 427.83)"></rect><path fill="#001f3e" d="M634.25 431.124q.36 0 .74-.06.37-.06.61-.15v1.13q-.25.12-.71.2-.45.08-.88.08-.76 0-1.39-.27-.62-.27-1-.91-.37-.64-.37-1.78v-5.71h-1.37v-.71l1.38-.57.58-2.09h.88v2.23h2.82v1.14h-2.82v5.67q0 .9.42 1.35.41.45 1.11.45"></path><rect width="5.72" height="12.04" x="-2.86" y="-6.02" fill="none" rx="0" ry="0" transform="translate(633.24 426.8)"></rect><path fill="#001f3e" d="M640.63 422.514v9.63h-1.46v-9.63Zm-.71-3.61q.36 0 .62.24.26.23.26.72t-.26.72q-.26.24-.62.24-.38 0-.63-.24-.25-.23-.25-.72t.25-.72q.25-.24.63-.24"></path><rect width="1.76" height="13.24" x="-.88" y="-6.62" fill="none" rx="0" ry="0" transform="translate(640.42 426.02)"></rect><path fill="#001f3e" d="M653.64 427.314q0 1.18-.31 2.11-.3.94-.88 1.58-.58.64-1.4.98-.83.34-1.86.34-.97 0-1.77-.34-.81-.34-1.39-.98-.59-.64-.91-1.58-.32-.93-.32-2.11 0-1.59.54-2.7.53-1.11 1.53-1.69 1-.59 2.38-.59 1.32 0 2.31.59.98.59 1.53 1.7.55 1.11.55 2.69m-7.33 0q0 1.16.31 2.01.31.85.95 1.32.64.46 1.65.46 1 0 1.65-.46.65-.47.95-1.32.31-.85.31-2.01 0-1.15-.31-1.99-.3-.84-.95-1.3-.64-.46-1.66-.46-1.5 0-2.2 1-.7.99-.7 2.75"></path><rect width="8.84" height="9.99" x="-4.42" y="-5" fill="none" rx="0" ry="0" transform="translate(649.72 427.83)"></rect><path fill="#001f3e" d="M662.35 422.334q1.71 0 2.59.84.88.84.88 2.7v6.27h-1.44v-6.18q0-1.2-.55-1.8-.55-.6-1.69-.6-1.6 0-2.25.91-.65.9-.65 2.63v5.04h-1.45v-9.63h1.17l.22 1.39h.08q.31-.51.78-.86.48-.35 1.07-.53.59-.18 1.24-.18"></path><rect width="8.03" height="9.81" x="-4.01" y="-4.91" fill="none" rx="0" ry="0" transform="translate(662.3 427.74)"></rect><path fill="#001f3e" d="m685.02 432.144-1.58-4.08h-5.15l-1.58 4.08h-1.51l5.03-12.9h1.34l5 12.9Zm-2.03-5.4-1.5-4.06q-.06-.15-.18-.51-.11-.37-.24-.75-.12-.39-.2-.63-.09.36-.19.72t-.2.66q-.09.3-.16.51l-1.53 4.06Z"></path><rect width="11.37" height="12.9" x="-5.68" y="-6.45" fill="none" rx="0" ry="0" transform="translate(681.38 426.2)"></rect><path fill="#001f3e" d="M694.3 422.334q1.72 0 2.6.84.87.84.87 2.7v6.27h-1.44v-6.18q0-1.2-.55-1.8-.55-.6-1.68-.6-1.6 0-2.25.91-.65.9-.65 2.63v5.04h-1.46v-9.63h1.18l.22 1.39h.08q.31-.51.78-.86.48-.35 1.06-.53.59-.18 1.24-.18"></path><rect width="8.03" height="9.81" x="-4.01" y="-4.91" fill="none" rx="0" ry="0" transform="translate(694.25 427.74)"></rect><path fill="#001f3e" d="M705.83 432.324q-1.83 0-2.9-1.25-1.07-1.25-1.07-3.71 0-2.49 1.09-3.76 1.09-1.27 2.9-1.27.77 0 1.34.2.57.21.99.54.41.34.69.77h.11q-.04-.27-.08-.74-.03-.48-.03-.78v-3.86h1.46v13.68h-1.18l-.22-1.37h-.06q-.27.43-.69.78-.42.35-.99.56-.58.21-1.36.21m.23-1.22q1.54 0 2.19-.88.64-.87.64-2.61v-.26q0-1.84-.61-2.82-.61-.98-2.22-.98-1.35 0-2.02 1.03-.66 1.03-.66 2.81t.66 2.75q.66.96 2.02.96"></path><rect width="8.47" height="13.86" x="-4.24" y="-6.93" fill="none" rx="0" ry="0" transform="translate(706.6 425.9)"></rect><path fill="#001f3e" d="M728.8 428.724q0 1.14-.57 1.95-.56.8-1.58 1.22-1.02.43-2.4.43-.73 0-1.38-.07-.65-.07-1.2-.21-.54-.13-.96-.32v-1.43q.66.27 1.61.5.95.23 1.99.23.97 0 1.63-.25.67-.26 1.02-.75t.35-1.18q0-.65-.29-1.1-.29-.44-.97-.81-.67-.36-1.83-.77-.82-.29-1.44-.64-.62-.35-1.05-.79-.42-.44-.63-1.02-.22-.58-.22-1.33 0-1.02.52-1.76.53-.73 1.45-1.12.93-.39 2.14-.39 1.02 0 1.9.19.87.19 1.6.52l-.46 1.28q-.7-.29-1.48-.48-.77-.2-1.6-.2-.83 0-1.39.25-.57.24-.87.68-.3.44-.3 1.04 0 .68.29 1.13.28.45.91.79.63.35 1.67.73 1.13.41 1.92.87.79.47 1.21 1.13.41.66.41 1.68"></path><rect width="8.09" height="13.21" x="-4.04" y="-6.61" fill="none" rx="0" ry="0" transform="translate(725.25 426.22)"></rect><path fill="#001f3e" d="M740.77 422.514v9.63h-1.19l-.21-1.35h-.08q-.3.5-.78.84-.47.34-1.06.52-.6.17-1.26.17-1.15 0-1.92-.37t-1.16-1.15q-.4-.77-.4-1.98v-6.31h1.48v6.2q0 1.21.55 1.8.54.59 1.66.59 1.07 0 1.71-.4.63-.4.91-1.19.29-.79.29-1.93v-5.07Z"></path><rect width="8.06" height="9.81" x="-4.03" y="-4.91" fill="none" rx="0" ry="0" transform="translate(737.24 427.92)"></rect><path fill="#001f3e" d="M750 422.334q1.81 0 2.88 1.24 1.07 1.24 1.07 3.73 0 1.64-.49 2.76-.49 1.11-1.39 1.69-.89.57-2.1.57-.76 0-1.35-.21-.58-.2-.99-.54-.41-.34-.68-.75h-.11l.07.83q.04.48.04.84v3.96h-1.47v-13.94h1.2l.2 1.42h.07q.28-.44.68-.8.41-.37.99-.58.59-.22 1.38-.22m-.25 1.23q-1 0-1.61.39-.61.39-.89 1.16-.29.76-.3 1.92v.29q0 1.22.26 2.06.27.84.89 1.28.62.44 1.67.44.89 0 1.49-.48t.89-1.35q.3-.86.3-1.99 0-1.7-.67-2.71-.66-1.01-2.03-1.01"></path><rect width="8.47" height="14.12" x="-4.24" y="-7.06" fill="none" rx="0" ry="0" transform="translate(750.22 429.9)"></rect><path fill="#001f3e" d="M762.64 422.334q1.8 0 2.87 1.24t1.07 3.73q0 1.64-.49 2.76-.49 1.11-1.38 1.69-.89.57-2.11.57-.76 0-1.34-.21-.58-.2-1-.54-.41-.34-.68-.75h-.11l.07.83q.04.48.04.84v3.96h-1.47v-13.94h1.21l.19 1.42h.07q.28-.44.68-.8.41-.37.99-.58.59-.22 1.39-.22m-.26 1.23q-1 0-1.61.39-.61.39-.89 1.16-.28.76-.3 1.92v.29q0 1.22.27 2.06.27.84.88 1.28.62.44 1.67.44.9 0 1.49-.48.6-.48.9-1.35.29-.86.29-1.99 0-1.7-.66-2.71-.67-1.01-2.04-1.01"></path><rect width="8.47" height="14.12" x="-4.24" y="-7.06" fill="none" rx="0" ry="0" transform="translate(762.85 429.9)"></rect><path fill="#001f3e" d="M772.21 432.144h-1.47v-13.68h1.47Z"></path><rect width="1.47" height="13.68" x="-.73" y="-6.84" fill="none" rx="0" ry="0" transform="translate(771.98 425.8)"></rect><path fill="#001f3e" d="M775.39 422.514h1.56l2.13 5.59q.18.49.34.94.16.46.28.87.13.41.2.8h.06q.12-.44.35-1.16.23-.71.49-1.46l2.01-5.58h1.58l-4.2 11.05q-.33.88-.77 1.54-.45.66-1.08 1.02-.63.35-1.53.35-.41 0-.73-.04-.31-.05-.54-.11v-1.17q.19.04.47.08.27.03.57.03.55 0 .95-.21.4-.2.69-.6.29-.39.5-.94l.53-1.35Z"></path><rect width="9" height="13.96" x="-4.5" y="-6.98" fill="none" rx="0" ry="0" transform="translate(780.39 430)"></rect></svg></svg>