<svg xmlns="http://www.w3.org/2000/svg" version="1.1" xmlns:xlink="http://www.w3.org/1999/xlink" width="1500" height="1500" viewBox="0 0 1500 1500"><rect width="1500" height="1500" x="0" y="0" id="background" stroke="transparent" fill="#000000"></rect><svg xml:space="preserve" width="1000" height="1000" data-version="2" data-id="lg_MyYHVvilEiMKmRWqX0" viewBox="0 0 755 665" x="250" y="250"><rect width="100%" height="100%" fill="transparent"></rect><path fill="#e4e4e4" d="M247.935 303.529h-85.643v45.522h85.643zm-83.329 43.126v-40.73h36.078l-33.116 40.73zm13.607 0 33.116-40.73h8.543l-33.106 40.73zm67.402 0H192.42l33.106-40.73h20.094v40.73z"></path><path fill="#e4e4e4" d="M288.444 302.752V281.41c0-43.126-41.664-43.126-41.664-43.126h-83.333s-41.665 0-41.665 43.126v21.34h-7.91v13.576h7.91v116.029c0 43.126 83.329 43.126 83.329 43.126s83.333 0 83.333-43.126v-116.03h7.906v-13.574zm-37.03 49.895h-92.596v-52.714h92.596zm-38.337 150.378q11.51 0 17.41 5.9 5.9 5.91 5.9 18.92v44.14h-18.53v-39.54q0-7.26-2.48-10.95-2.48-3.7-7.69-3.7-7.32 0-10.41 5.24t-3.09 14.98v33.97h-18.47v-39.54q0-4.84-1.09-8.11-1.09-3.27-3.33-4.9-2.24-1.64-5.75-1.64-5.14 0-8.08 2.58-2.94 2.57-4.18 7.56-1.24 5-1.24 12.2v31.85h-18.47v-67.69h14.11l2.48 8.66h1.03q2.06-3.51 5.18-5.69 3.12-2.18 6.87-3.21 3.76-1.03 7.63-1.03 7.45 0 12.62 2.42 5.18 2.42 7.97 7.51h1.63q3.03-5.21 8.57-7.57 5.54-2.36 11.41-2.36"></path><rect width="102.81" height="68.96" x="-51.41" y="-34.48" fill="none" rx="0" ry="0" transform="translate(185.48 538)"></rect><path fill="#e4e4e4" d="M307.997 502.905q13.62 0 20.89 5.93 7.26 5.93 7.26 18.04v45.11h-12.89l-3.58-9.2h-.48q-2.91 3.63-5.94 5.93-3.02 2.3-6.96 3.39-3.93 1.09-9.56 1.09-6 0-10.75-2.3t-7.48-7.05q-2.72-4.75-2.72-12.08 0-10.78 7.56-15.89 7.57-5.12 22.71-5.67l11.75-.36v-2.97q0-5.32-2.79-7.81-2.78-2.48-7.75-2.48-4.9 0-9.63 1.39-4.72 1.4-9.44 3.52l-6.12-12.48q5.39-2.84 12.08-4.48 6.69-1.63 13.84-1.63m9.81 37.72-7.15.24q-8.96.24-12.44 3.21-3.48 2.97-3.48 7.81 0 4.24 2.48 6.02 2.48 1.79 6.48 1.79 5.93 0 10.02-3.51t4.09-9.99Z"></path><rect width="60.36" height="70.29" x="-30.18" y="-35.15" fill="none" rx="0" ry="0" transform="translate(306.47 538.55)"></rect><path fill="#e4e4e4" d="M418.527 503.025q10.84 0 17.44 5.9 6.6 5.91 6.6 18.92v44.14h-18.46v-39.54q0-7.26-2.64-10.95-2.63-3.7-8.26-3.7-8.48 0-11.57 5.75-3.09 5.76-3.09 16.59v31.85h-18.46v-67.69h14.1l2.49 8.66h1.03q2.18-3.51 5.42-5.69 3.23-2.18 7.2-3.21 3.97-1.03 8.2-1.03"></path><rect width="62.48" height="68.96" x="-31.24" y="-34.48" fill="none" rx="0" ry="0" transform="translate(411.83 538)"></rect><path fill="#e4e4e4" d="M507.937 573.195q-11.32 0-18.44-8.87-7.11-8.87-7.11-26.06 0-17.38 7.21-26.31 7.2-8.93 18.83-8.93 4.84 0 8.53 1.33 3.7 1.33 6.39 3.57 2.69 2.24 4.57 5.03h.61q-.37-1.94-.88-5.72-.52-3.79-.52-7.78v-21.68h18.53v94.21h-14.17l-3.57-8.78h-.79q-1.75 2.79-4.39 5.06-2.63 2.27-6.26 3.6t-8.54 1.33m6.48-14.71q7.57 0 10.69-4.51 3.11-4.51 3.3-13.59v-2q0-9.87-3.03-15.11t-11.26-5.24q-6.12 0-9.57 5.27t-3.45 15.2q0 9.93 3.48 14.95 3.48 5.03 9.84 5.03"></path><rect width="63.27" height="95.42" x="-31.64" y="-47.71" fill="none" rx="0" ry="0" transform="translate(514.52 525.99)"></rect><path fill="#e4e4e4" d="M652.017 504.295v67.69h-14.17l-2.48-8.66h-.97q-2.18 3.45-5.45 5.63-3.27 2.18-7.2 3.21-3.94 1.03-8.18 1.03-7.26 0-12.65-2.57-5.39-2.57-8.39-8.02-2.99-5.45-2.99-14.17v-44.14h18.46v39.54q0 7.26 2.61 10.96 2.6 3.69 8.29 3.69 5.63 0 8.84-2.57 3.21-2.58 4.51-7.57 1.3-5 1.3-12.2v-31.85Z"></path><rect width="62.48" height="68.9" x="-31.24" y="-34.45" fill="none" rx="0" ry="0" transform="translate(621.28 539.25)"></rect><path fill="#e4e4e4" d="M679.417 567.675q0-1.06.51-1.51.52-.45 1.26-.45.77 0 1.3.45t.53 1.51q0 1.04-.53 1.52-.53.47-1.3.47-.74 0-1.26-.47-.51-.48-.51-1.52"></path><rect width="3.6" height="3.95" x="-1.8" y="-1.98" fill="none" rx="0" ry="0" transform="translate(681.72 568.19)"></rect><path fill="#e4e4e4" d="M694.577 569.545q-2.24 0-3.95-.92t-2.66-2.82q-.95-1.89-.95-4.76 0-3.02 1-4.93 1.01-1.92 2.78-2.84 1.77-.92 4.03-.92 1.24 0 2.39.25 1.16.25 1.9.62l-.75 2.11q-.76-.3-1.75-.55-.99-.24-1.85-.24-1.73 0-2.87.74-1.15.75-1.71 2.18-.57 1.44-.57 3.55 0 2.01.55 3.43.55 1.42 1.65 2.17 1.1.75 2.75.75 1.32 0 2.37-.28 1.06-.28 1.93-.66v2.24q-.84.43-1.86.66-1.02.22-2.43.22"></path><rect width="12.1" height="17.19" x="-6.05" y="-8.6" fill="none" rx="0" ry="0" transform="translate(693.57 561.45)"></rect><path fill="#e4e4e4" d="M717.087 560.915q0 2.05-.53 3.65-.53 1.61-1.53 2.71-1 1.11-2.41 1.69-1.42.58-3.2.58-1.67 0-3.05-.58-1.39-.58-2.39-1.69-1.01-1.1-1.56-2.71-.56-1.6-.56-3.65 0-2.72.93-4.64.92-1.91 2.64-2.92 1.72-1 4.09-1 2.27 0 3.98 1.01 1.7 1.02 2.65 2.93.94 1.91.94 4.62m-12.62 0q0 2 .53 3.47.53 1.47 1.63 2.27 1.11.8 2.85.8 1.72 0 2.84-.8 1.11-.8 1.64-2.27.53-1.47.53-3.47 0-1.98-.53-3.42-.53-1.45-1.64-2.24-1.1-.78-2.86-.78-2.59 0-3.79 1.71-1.2 1.71-1.2 4.73"></path><rect width="15.23" height="17.19" x="-7.62" y="-8.6" fill="none" rx="0" ry="0" transform="translate(709.97 561.45)"></rect><path fill="#e4e4e4" d="M739.447 552.355q2.74 0 4.13 1.43 1.39 1.43 1.39 4.59v10.87h-2.48v-10.75q0-2.01-.87-3.02-.87-1-2.58-1-2.41 0-3.5 1.39-1.09 1.39-1.09 4.1v9.28h-2.49v-10.75q0-1.34-.39-2.24-.39-.89-1.15-1.34-.76-.44-1.93-.44-1.65 0-2.65.68t-1.44 2.02q-.45 1.34-.45 3.29v8.78h-2.51v-16.59h2.02l.38 2.35h.14q.5-.87 1.26-1.46.75-.59 1.69-.89.94-.3 2-.3 1.89 0 3.17.7t1.85 2.14h.14q.82-1.44 2.24-2.14 1.42-.7 3.12-.7"></path><rect width="23.53" height="16.89" x="-11.77" y="-8.45" fill="none" rx="0" ry="0" transform="translate(733.7 561.3)"></rect><path fill="#e4e4e4" d="M315.26 241.285h432.226v221.688H315.26z"></path><g transform="translate(400.04 359.4)"><linearGradient id="a" x1="0" x2="-.03" y1="0" y2="0" gradientUnits="objectBoundingBox"><stop offset="0%" stop-color="#343434"></stop><stop offset="49.8%" stop-color="#000000"></stop><stop offset="100%" stop-color="#343434"></stop></linearGradient><path fill="url(#a)" d="M356.47 405.3h-20.12V301h22.95l33.22 78.08L425.75 301h22.95v104.3h-20.12v-67.35l-28.16 67.35h-15.79l-28.16-67.35Z" transform="translate(-392.52 -353.15)"></path></g><rect width="112.35" height="104.3" x="-56.17" y="-52.15" fill="none" rx="0" ry="0" transform="translate(400.54 359.9)"></rect><g transform="matrix(4.2453 0 0 4.3954 581.48 266.79)"><linearGradient id="b" x1="0" x2="1" y1="0" y2="0" gradientUnits="objectBoundingBox"><stop offset="0%" stop-color="#212121"></stop><stop offset="49.8%" stop-color="#000000"></stop><stop offset="100%" stop-color="#212121"></stop></linearGradient><path fill="url(#b)" d="M-5092.935 573.73a2.039 2.039 0 0 0-2.062.086l1.79.593z" transform="translate(5093.97 -573.95)"></path></g><g transform="matrix(4.2453 0 0 4.3954 577.99 276.53)"><linearGradient id="c" x1="0" x2="1" y1="0" y2="0" gradientUnits="objectBoundingBox"><stop offset="0%" stop-color="#212121"></stop><stop offset="49.8%" stop-color="#000000"></stop><stop offset="100%" stop-color="#212121"></stop></linearGradient><path fill="url(#c)" d="M-5094.248 577.538a1.089 1.089 0 0 1 .05-.649l.553-1.383-2.15-.711a2.039 2.039 0 0 0 1.547 2.743" transform="translate(5094.79 -576.17)"></path></g><g transform="matrix(4.2453 0 0 4.3954 583.86 276.03)"><linearGradient id="d" x1="0" x2="1" y1="0" y2="0" gradientUnits="objectBoundingBox"><stop offset="0%" stop-color="#212121"></stop><stop offset="49.8%" stop-color="#000000"></stop><stop offset="100%" stop-color="#212121"></stop></linearGradient><path fill="url(#d)" d="M-5092.638 578.476a.104.104 0 0 0 .112-.064l.895-2.239-.913-.302a.216.216 0 0 1-.137-.273l.235-.71a.216.216 0 0 1 .273-.137l.981.325.302-.754a.008.008 0 0 0-.01-.011l-1.7-.68a.008.008 0 0 0-.012.004l-.443 1.11-2.669-.884-.2.6a.008.008 0 0 0 .01.01l2.625.869-.66 1.65a.819.819 0 0 0 .145.843c.301.344.714.571 1.165.643z" transform="translate(5093.4 -576.05)"></path></g><g transform="matrix(4.2453 0 0 4.3954 590.47 273.48)"><linearGradient id="e" x1="0" x2="1" y1="0" y2="0" gradientUnits="objectBoundingBox"><stop offset="0%" stop-color="#212121"></stop><stop offset="49.8%" stop-color="#000000"></stop><stop offset="100%" stop-color="#212121"></stop></linearGradient><path fill="url(#e)" d="m-5092.407 575.632.877.29.238-.595-.915-.303z" transform="translate(5091.85 -575.47)"></path></g><g transform="matrix(4.2453 0 0 4.3954 590.26 299.22)"><linearGradient id="f" x1="0" x2="1" y1="0" y2="0" gradientUnits="objectBoundingBox"><stop offset="0%" stop-color="#212121"></stop><stop offset="49.8%" stop-color="#000000"></stop><stop offset="100%" stop-color="#212121"></stop></linearGradient><path fill="url(#f)" d="m-5089.977 581.375-.936 1.598-2.154-1.007a.278.278 0 0 1-.154-.194l-.576-2.72a.135.135 0 0 1 .264-.057l.576 2.721a.008.008 0 0 0 .01.006l.145.068v-1.41a2.853 2.853 0 0 0-2.853-2.853h-.011c-.9 0-1.63.73-1.63 1.63v5.886a.056.056 0 0 0 .056.056h4.382a.056.056 0 0 0 .056-.056v-1.008l-1.246-.582a1.089 1.089 0 0 1-.571-.641l-1.159-3.462a.135.135 0 0 1 .257-.086l1.157 3.462a.819.819 0 0 0 .43.483l2.268 1.06-.092.158a.479.479 0 0 0 .825.484l.138-.235.118.055a.747.747 0 0 0 .64-1.35l.892-1.522a.479.479 0 0 0-.065-.57l1.218-2.079a.008.008 0 0 1 .01-.004l1.377-.295a.135.135 0 0 0-.056-.263l-1.377.294a.278.278 0 0 0-.182.132l-1.218 2.079a.479.479 0 0 0-.528.222z" transform="translate(5091.9 -581.33)"></path></g><g transform="translate(510.42 374.12)"><linearGradient id="g" x1="0" x2="2.09" y1="0" y2="0" gradientUnits="objectBoundingBox"><stop offset="0%" stop-color="#3d3d3d"></stop><stop offset="49.8%" stop-color="#000000"></stop><stop offset="100%" stop-color="#3d3d3d"></stop></linearGradient><path fill="url(#g)" d="M504.14 405.38q-10.95 0-19.27-4.82-8.32-4.81-12.92-13.43-4.6-8.61-4.6-19.85 0-10.81 4.6-19.13 4.6-8.32 12.63-13.07 8.03-4.74 18.39-4.74 10.52 0 18.55 4.52 8.03 4.53 12.48 12.63 4.45 8.11 4.45 18.91 0 1.61-.22 3.58t-.51 4.16H487.5q.58 4.67 2.99 7.95 2.41 3.29 5.99 5.11 3.57 1.83 8.1 1.83 5.4 0 9.71-2.19 4.31-2.19 6.2-5.99l16.5 4.97q-4.38 9.34-12.99 14.45-8.62 5.11-19.86 5.11m13.87-44.82q-.14-4.09-2.19-7.37-2.04-3.29-5.4-5.11-3.36-1.83-7.45-1.83-3.65 0-6.86 1.83-3.21 1.82-5.47 5.03-2.27 3.22-3 7.45Z" transform="translate(-502.9 -367.86)"></path></g><rect width="71.1" height="75.04" x="-35.55" y="-37.52" fill="none" rx="0" ry="0" transform="translate(510.92 374.62)"></rect><g transform="translate(579.77 364.15)"><linearGradient id="h" x1="-1.46" x2="2.05" y1="0" y2="0" gradientUnits="objectBoundingBox"><stop offset="0%" stop-color="#3d3d3d"></stop><stop offset="49.8%" stop-color="#000000"></stop><stop offset="100%" stop-color="#3d3d3d"></stop></linearGradient><path fill="url(#h)" d="M559.91 331.36v-20.44h18.84v20.44h16.2v16.5h-16.2v29.64q0 5.69 2.48 8.03 2.48 2.33 6.2 2.48 3.73.14 7.52-.44v16.06q-6.71 1.46-13.06.88-6.35-.59-11.32-3.44-4.96-2.84-7.81-8.68-2.85-5.84-2.85-14.89v-29.64h-10.36v-16.5Z" transform="translate(-572.25 -357.9)"></path></g><rect width="45.4" height="93.95" x="-22.7" y="-46.98" fill="none" rx="0" ry="0" transform="translate(580.27 364.65)"></rect><g transform="translate(647.73 374.05)"><linearGradient id="i" x1="-1.74" x2=".45" y1="0" y2="0" gradientUnits="objectBoundingBox"><stop offset="0%" stop-color="#3d3d3d"></stop><stop offset="49.8%" stop-color="#000000"></stop><stop offset="100%" stop-color="#3d3d3d"></stop></linearGradient><path fill="url(#i)" d="m654.81 404.36-1.46-8.91q-3.65 4.53-8.25 7.16-4.59 2.63-12.33 2.63-7.3 0-12.78-2.56-5.47-2.55-8.54-7.15-3.06-4.6-3.06-10.88 0-9.2 6.64-15.26 6.64-6.06 20.07-7.66l18.25-2.05v-5.11q0-3.06-2.77-5.69-2.77-2.63-8.76-2.63-5.26 0-9.13 2.56-3.86 2.55-5.18 7.66l-16.06-5.84q2.92-9.78 11.1-15.04 8.17-5.25 20.15-5.25 14.6 0 21.97 7.22 7.37 7.23 7.37 19.06v47.74Zm-1.46-31.68-15.76 2.04q-4.82.59-7.3 2.85-2.49 2.26-2.49 5.47 0 3.07 2.49 5.19 2.48 2.11 7 2.11 5.11 0 8.69-1.89 3.58-1.9 5.48-5.55 1.89-3.65 1.89-9.05Z" transform="translate(-640.22 -367.79)"></path></g><rect width="63.65" height="74.9" x="-31.82" y="-37.45" fill="none" rx="0" ry="0" transform="translate(648.23 374.55)"></rect><g transform="translate(709.63 358.06)"><linearGradient id="j" x1="-5.5" x2="-.09" y1="0" y2="0" gradientUnits="objectBoundingBox"><stop offset="0%" stop-color="#3d3d3d"></stop><stop offset="49.8%" stop-color="#000000"></stop><stop offset="100%" stop-color="#3d3d3d"></stop></linearGradient><path fill="url(#j)" d="M692.77 299.24h18.69v105.12h-18.69Z" transform="translate(-702.12 -351.8)"></path></g><rect width="18.69" height="105.12" x="-9.35" y="-52.56" fill="none" rx="0" ry="0" transform="translate(710.13 358.56)"></rect><path fill="#e4e4e4" d="m240.377 635.795-.42 5.93h-1.18l-.42-5.93Zm4.11 0-.41 5.93h-1.18l-.42-5.93Z"></path><rect width="6.13" height="5.93" x="-3.06" y="-2.96" fill="none" rx="0" ry="0" transform="translate(241.92 639.26)"></rect><path fill="#e4e4e4" d="M250.157 652.215h-1.91v-16.42h9.15v1.68h-7.24v6.02h6.8v1.67h-6.8Z"></path><rect width="9.15" height="16.42" x="-4.58" y="-8.21" fill="none" rx="0" ry="0" transform="translate(253.32 644.5)"></rect><path fill="#e4e4e4" d="M264.447 639.695q2.2 0 3.27.99 1.06.99 1.06 3.16v8.37h-1.36l-.35-1.82h-.09q-.52.67-1.08 1.12-.56.46-1.3.69-.74.23-1.8.23-1.13 0-2-.39-.87-.4-1.37-1.19-.5-.8-.5-2.03 0-1.84 1.46-2.83 1.46-.98 4.45-1.07l2.12-.09v-.76q0-1.59-.68-2.23-.69-.64-1.93-.64-.97 0-1.84.28-.88.28-1.67.66l-.57-1.41q.83-.43 1.91-.73 1.08-.31 2.27-.31m2.49 6.45-1.87.08q-2.31.09-3.25.75t-.94 1.88q0 1.05.64 1.56.64.5 1.69.5 1.64 0 2.69-.91 1.04-.91 1.04-2.72Z"></path><rect width="9.85" height="12.74" x="-4.92" y="-6.37" fill="none" rx="0" ry="0" transform="translate(264.35 646.57)"></rect><path fill="#e4e4e4" d="M274.487 634.735v4.37q0 .75-.04 1.46t-.06 1.1h.1q.5-.83 1.46-1.4.95-.58 2.44-.58 2.31 0 3.68 1.6 1.38 1.6 1.38 4.76 0 2.08-.63 3.5-.63 1.43-1.77 2.16-1.15.73-2.71.73-1.46 0-2.4-.54-.93-.55-1.44-1.34h-.15l-.38 1.66h-1.35v-17.48Zm3.59 6.51q-1.33 0-2.12.53-.79.52-1.13 1.57-.34 1.05-.34 2.65v.11q0 2.32.77 3.55.78 1.23 2.82 1.23 1.72 0 2.58-1.26.86-1.26.86-3.59 0-2.38-.85-3.58-.85-1.21-2.59-1.21"></path><rect width="10.83" height="17.7" x="-5.42" y="-8.85" fill="none" rx="0" ry="0" transform="translate(278.53 644.09)"></rect><path fill="#e4e4e4" d="M292.287 639.675q.37 0 .77.04.41.04.72.11l-.23 1.73q-.31-.08-.68-.13-.37-.04-.69-.04-.74 0-1.4.3-.66.29-1.15.85-.5.56-.78 1.34t-.28 1.73v6.61h-1.87v-12.31h1.55l.2 2.27h.08q.38-.69.92-1.26.54-.56 1.25-.9.71-.34 1.59-.34"></path><rect width="7.08" height="12.54" x="-3.54" y="-6.27" fill="none" rx="0" ry="0" transform="translate(290.74 646.45)"></rect><path fill="#e4e4e4" d="M297.957 639.905v12.31h-1.86v-12.31Zm-.91-4.61q.46 0 .79.3t.33.93q0 .61-.33.92-.33.3-.79.3-.48 0-.8-.3-.32-.31-.32-.92 0-.63.32-.93.32-.3.8-.3"></path><rect width="2.24" height="16.92" x="-1.12" y="-8.46" fill="none" rx="0" ry="0" transform="translate(297.55 644.25)"></rect><path fill="#e4e4e4" d="M306.827 652.435q-1.66 0-2.93-.69-1.27-.68-1.98-2.08-.7-1.41-.7-3.54 0-2.24.74-3.66.75-1.42 2.06-2.1 1.32-.69 2.99-.69.92 0 1.78.19.86.18 1.41.46l-.56 1.56q-.56-.22-1.3-.4-.73-.18-1.37-.18-1.28 0-2.13.55-.85.55-1.27 1.62-.42 1.06-.42 2.63 0 1.49.41 2.55.41 1.05 1.22 1.61.82.55 2.04.55.98 0 1.76-.21.79-.2 1.43-.48v1.66q-.62.31-1.37.48-.76.17-1.81.17"></path><rect width="8.98" height="12.76" x="-4.49" y="-6.38" fill="none" rx="0" ry="0" transform="translate(306.2 646.55)"></rect><path fill="#e4e4e4" d="M317.517 639.695q2.21 0 3.27.99 1.07.99 1.07 3.16v8.37h-1.36l-.36-1.82h-.09q-.52.67-1.08 1.12-.56.46-1.29.69-.74.23-1.81.23-1.12 0-1.99-.39-.87-.4-1.37-1.19-.5-.8-.5-2.03 0-1.84 1.46-2.83 1.46-.98 4.45-1.07l2.12-.09v-.76q0-1.59-.69-2.23-.68-.64-1.93-.64-.96 0-1.84.28-.87.28-1.66.66l-.57-1.41q.83-.43 1.91-.73 1.07-.31 2.26-.31m2.5 6.45-1.88.08q-2.3.09-3.24.75-.95.66-.95 1.88 0 1.05.64 1.56.64.5 1.7.5 1.64 0 2.68-.91 1.05-.91 1.05-2.72Z"></path><rect width="9.85" height="12.74" x="-4.92" y="-6.37" fill="none" rx="0" ry="0" transform="translate(317.43 646.57)"></rect><path fill="#e4e4e4" d="M329.677 650.905q.46 0 .94-.08.48-.07.78-.19v1.45q-.32.15-.9.25-.58.1-1.13.1-.97 0-1.77-.34-.8-.35-1.28-1.17-.47-.81-.47-2.26v-7.3h-1.76v-.91l1.77-.73.74-2.68h1.12v2.86h3.61v1.46h-3.61v7.24q0 1.16.53 1.73.54.57 1.43.57"></path><rect width="7.31" height="15.39" x="-3.65" y="-7.7" fill="none" rx="0" ry="0" transform="translate(328.24 645.24)"></rect><path fill="#e4e4e4" d="M335.757 639.905v12.31h-1.86v-12.31Zm-.91-4.61q.46 0 .79.3.34.3.34.93 0 .61-.34.92-.33.3-.79.3-.48 0-.8-.3-.32-.31-.32-.92 0-.63.32-.93.32-.3.8-.3"></path><rect width="2.25" height="16.92" x="-1.13" y="-8.46" fill="none" rx="0" ry="0" transform="translate(335.35 644.25)"></rect><path fill="#e4e4e4" d="M350.317 646.035q0 1.51-.4 2.71-.39 1.19-1.13 2.01-.74.82-1.79 1.25-1.05.43-2.38.43-1.23 0-2.26-.43-1.03-.43-1.77-1.25-.75-.82-1.16-2.01-.41-1.2-.41-2.71 0-2.02.68-3.44.69-1.42 1.96-2.17 1.28-.75 3.04-.75 1.69 0 2.95.75 1.26.76 1.97 2.18.7 1.42.7 3.43m-9.37 0q0 1.48.39 2.57.4 1.09 1.22 1.68.82.6 2.11.6 1.28 0 2.1-.6.83-.59 1.22-1.68.4-1.09.4-2.57 0-1.47-.4-2.55-.39-1.07-1.21-1.65-.82-.59-2.12-.59-1.92 0-2.82 1.27-.89 1.27-.89 3.52"></path><rect width="11.3" height="12.76" x="-5.65" y="-6.38" fill="none" rx="0" ry="0" transform="translate(345.17 646.55)"></rect><path fill="#e4e4e4" d="M359.367 639.675q2.19 0 3.31 1.07 1.12 1.08 1.12 3.45v8.02h-1.84v-7.9q0-1.54-.7-2.3-.7-.77-2.15-.77-2.04 0-2.87 1.16-.84 1.16-.84 3.36v6.45h-1.86v-12.31h1.5l.29 1.77h.1q.39-.65 1-1.09.6-.45 1.36-.68.75-.23 1.58-.23"></path><rect width="10.26" height="12.54" x="-5.13" y="-6.27" fill="none" rx="0" ry="0" transform="translate(359.17 646.45)"></rect><path fill="#e4e4e4" d="m369.777 649.535.15.26q-.21.82-.52 1.75-.3.93-.67 1.87-.36.94-.74 1.76h-1.39q.24-.9.46-1.89.23-1 .41-1.97.19-.97.3-1.78Z"></path><rect width="3.32" height="5.64" x="-1.66" y="-2.82" fill="none" rx="0" ry="0" transform="translate(368.77 652.86)"></rect><path fill="#e4e4e4" d="M380.897 637.245q-1.36 0-2.45.46-1.08.47-1.84 1.35-.75.88-1.16 2.13-.4 1.24-.4 2.8 0 2.07.64 3.59.65 1.52 1.93 2.36 1.29.83 3.22.83 1.1 0 2.07-.19.97-.18 1.9-.46v1.66q-.9.33-1.89.5-.99.16-2.35.16-2.5 0-4.18-1.04-1.68-1.04-2.52-2.94-.83-1.89-.83-4.48 0-1.86.52-3.41.52-1.54 1.53-2.66 1-1.13 2.47-1.74 1.46-.61 3.36-.61 1.25 0 2.4.25 1.16.24 2.09.71l-.76 1.61q-.79-.36-1.73-.62-.93-.26-2.02-.26"></path><rect width="12.37" height="16.88" x="-6.18" y="-8.44" fill="none" rx="0" ry="0" transform="translate(379.72 644.5)"></rect><path fill="#e4e4e4" d="M398.697 646.035q0 1.51-.4 2.71-.39 1.19-1.13 2.01-.74.82-1.79 1.25-1.05.43-2.38.43-1.23 0-2.26-.43-1.03-.43-1.77-1.25-.75-.82-1.16-2.01-.41-1.2-.41-2.71 0-2.02.68-3.44.69-1.42 1.96-2.17 1.28-.75 3.04-.75 1.69 0 2.95.75 1.26.76 1.97 2.18.7 1.42.7 3.43m-9.37 0q0 1.48.39 2.57.4 1.09 1.22 1.68.82.6 2.11.6 1.28 0 2.1-.6.83-.59 1.22-1.68.4-1.09.4-2.57 0-1.47-.4-2.55-.39-1.07-1.21-1.65-.82-.59-2.12-.59-1.92 0-2.82 1.27-.89 1.27-.89 3.52"></path><rect width="11.3" height="12.76" x="-5.65" y="-6.38" fill="none" rx="0" ry="0" transform="translate(393.55 646.55)"></rect><path fill="#e4e4e4" d="M407.747 639.675q2.19 0 3.31 1.07 1.13 1.08 1.13 3.45v8.02h-1.85v-7.9q0-1.54-.7-2.3-.7-.77-2.15-.77-2.04 0-2.87 1.16-.83 1.16-.83 3.36v6.45h-1.87v-12.31h1.51l.28 1.77h.1q.39-.65 1-1.09.6-.45 1.36-.68.75-.23 1.58-.23"></path><rect width="10.27" height="12.54" x="-5.13" y="-6.27" fill="none" rx="0" ry="0" transform="translate(407.55 646.45)"></rect><path fill="#e4e4e4" d="M423.987 648.845q0 1.18-.59 1.98t-1.69 1.21q-1.09.4-2.61.4-1.29 0-2.23-.2t-1.65-.58v-1.71q.75.37 1.79.67 1.05.3 2.14.3 1.59 0 2.31-.51.72-.52.72-1.41 0-.5-.29-.89-.28-.39-.96-.75-.67-.37-1.86-.8-1.18-.45-2.04-.9-.86-.44-1.32-1.08-.47-.64-.47-1.66 0-1.56 1.26-2.4 1.27-.84 3.32-.84 1.11 0 2.09.22.97.22 1.81.59l-.63 1.49q-.76-.32-1.63-.55-.86-.22-1.76-.22-1.29 0-1.98.43-.69.42-.69 1.16 0 .58.32.95t1.02.69q.71.33 1.87.77 1.15.42 2 .88.84.45 1.29 1.1.46.65.46 1.66"></path><rect width="8.77" height="12.76" x="-4.38" y="-6.38" fill="none" rx="0" ry="0" transform="translate(420.1 646.55)"></rect><path fill="#e4e4e4" d="M430.957 650.905q.46 0 .95-.08.48-.07.78-.19v1.45q-.32.15-.9.25-.58.1-1.13.1-.98 0-1.77-.34-.8-.35-1.28-1.17-.48-.81-.48-2.26v-7.3h-1.75v-.91l1.76-.73.75-2.68h1.12v2.86h3.6v1.46h-3.6v7.24q0 1.16.53 1.73.54.57 1.42.57"></path><rect width="7.31" height="15.39" x="-3.65" y="-7.7" fill="none" rx="0" ry="0" transform="translate(429.53 645.24)"></rect><path fill="#e4e4e4" d="M440.777 639.675q.37 0 .77.04.41.04.72.11l-.23 1.73q-.31-.08-.68-.13-.37-.04-.69-.04-.75 0-1.4.3-.66.29-1.15.85-.5.56-.78 1.34t-.28 1.73v6.61h-1.87v-12.31h1.55l.2 2.27h.08q.38-.69.92-1.26.54-.56 1.25-.9.71-.34 1.59-.34"></path><rect width="7.08" height="12.54" x="-3.54" y="-6.27" fill="none" rx="0" ry="0" transform="translate(439.23 646.45)"></rect><path fill="#e4e4e4" d="M454.747 639.905v12.31h-1.53l-.27-1.73h-.1q-.38.64-.99 1.07-.6.44-1.36.66-.76.22-1.61.22-1.46 0-2.45-.47-.99-.47-1.49-1.46t-.5-2.54v-8.06h1.89v7.93q0 1.53.69 2.29.7.76 2.13.76 1.37 0 2.18-.52.81-.51 1.17-1.52.36-1 .36-2.46v-6.48Z"></path><rect width="10.3" height="12.53" x="-5.15" y="-6.26" fill="none" rx="0" ry="0" transform="translate(450.1 646.67)"></rect><path fill="#e4e4e4" d="M463.617 652.435q-1.66 0-2.93-.69-1.27-.68-1.98-2.08-.7-1.41-.7-3.54 0-2.24.74-3.66.75-1.42 2.06-2.1 1.32-.69 2.99-.69.92 0 1.78.19.86.18 1.41.46l-.56 1.56q-.56-.22-1.3-.4-.73-.18-1.37-.18-1.28 0-2.13.55-.85.55-1.27 1.62-.42 1.06-.42 2.63 0 1.49.41 2.55.41 1.05 1.22 1.61.82.55 2.04.55.98 0 1.76-.21.79-.2 1.43-.48v1.66q-.62.31-1.38.48-.75.17-1.8.17"></path><rect width="8.98" height="12.76" x="-4.49" y="-6.38" fill="none" rx="0" ry="0" transform="translate(463 646.55)"></rect><path fill="#e4e4e4" d="M473.677 650.905q.46 0 .95-.08.48-.07.78-.19v1.45q-.32.15-.9.25-.58.1-1.13.1-.98 0-1.77-.34-.8-.35-1.28-1.17-.48-.81-.48-2.26v-7.3h-1.75v-.91l1.77-.73.74-2.68h1.12v2.86h3.6v1.46h-3.6v7.24q0 1.16.53 1.73.54.57 1.42.57"></path><rect width="7.31" height="15.39" x="-3.65" y="-7.7" fill="none" rx="0" ry="0" transform="translate(472.25 645.24)"></rect><path fill="#e4e4e4" d="M479.767 639.905v12.31h-1.86v-12.31Zm-.91-4.61q.46 0 .79.3t.33.93q0 .61-.33.92-.33.3-.79.3-.48 0-.8-.3-.32-.31-.32-.92 0-.63.32-.93.32-.3.8-.3"></path><rect width="2.24" height="16.92" x="-1.12" y="-8.46" fill="none" rx="0" ry="0" transform="translate(479.36 644.25)"></rect><path fill="#e4e4e4" d="M494.327 646.035q0 1.51-.4 2.71-.39 1.19-1.13 2.01-.74.82-1.79 1.25-1.05.43-2.38.43-1.23 0-2.26-.43-1.03-.43-1.78-1.25-.74-.82-1.15-2.01-.41-1.2-.41-2.71 0-2.02.68-3.44.69-1.42 1.96-2.17 1.28-.75 3.04-.75 1.68 0 2.95.75 1.26.76 1.96 2.18.71 1.42.71 3.43m-9.37 0q0 1.48.39 2.57.4 1.09 1.21 1.68.82.6 2.12.6 1.28 0 2.1-.6.83-.59 1.22-1.68.39-1.09.39-2.57 0-1.47-.39-2.55-.39-1.07-1.21-1.65-.82-.59-2.12-.59-1.93 0-2.82 1.27-.89 1.27-.89 3.52"></path><rect width="11.3" height="12.76" x="-5.65" y="-6.38" fill="none" rx="0" ry="0" transform="translate(489.18 646.55)"></rect><path fill="#e4e4e4" d="M503.377 639.675q2.19 0 3.31 1.07 1.12 1.08 1.12 3.45v8.02h-1.84v-7.9q0-1.54-.7-2.3-.7-.77-2.15-.77-2.05 0-2.88 1.16-.83 1.16-.83 3.36v6.45h-1.86v-12.31h1.5l.28 1.77h.11q.39-.65.99-1.09.61-.45 1.36-.68.76-.23 1.59-.23"></path><rect width="10.26" height="12.54" x="-5.13" y="-6.27" fill="none" rx="0" ry="0" transform="translate(503.18 646.45)"></rect><path fill="#e4e4e4" d="m528.207 652.215-2.02-5.22h-6.58l-2.02 5.22h-1.93l6.43-16.49h1.72l6.37 16.49Zm-2.6-6.91-1.92-5.18q-.06-.2-.22-.66-.15-.46-.3-.96-.16-.49-.26-.79-.12.46-.24.91-.13.46-.26.84-.12.39-.21.66l-1.95 5.18Z"></path><rect width="14.52" height="16.49" x="-7.26" y="-8.24" fill="none" rx="0" ry="0" transform="translate(523.42 644.47)"></rect><path fill="#e4e4e4" d="M537.997 639.675q2.19 0 3.31 1.07 1.13 1.08 1.13 3.45v8.02h-1.85v-7.9q0-1.54-.7-2.3-.7-.77-2.15-.77-2.04 0-2.87 1.16-.83 1.16-.83 3.36v6.45h-1.87v-12.31h1.51l.28 1.77h.1q.39-.65 1-1.09.6-.45 1.36-.68.75-.23 1.58-.23"></path><rect width="10.27" height="12.54" x="-5.13" y="-6.27" fill="none" rx="0" ry="0" transform="translate(537.8 646.45)"></rect><path fill="#e4e4e4" d="M550.657 652.435q-2.34 0-3.7-1.59-1.37-1.6-1.37-4.74 0-3.18 1.39-4.81 1.4-1.62 3.71-1.62.98 0 1.71.26t1.26.69q.52.43.88.98h.14q-.05-.34-.09-.95-.05-.61-.05-.99v-4.93h1.87v17.48h-1.51l-.28-1.76h-.08q-.35.55-.88 1-.53.45-1.27.72-.73.26-1.73.26m.29-1.55q1.98 0 2.8-1.12.82-1.13.82-3.34v-.34q0-2.34-.79-3.6-.78-1.26-2.83-1.26-1.72 0-2.57 1.32-.86 1.32-.86 3.6 0 2.27.85 3.5.85 1.24 2.58 1.24"></path><rect width="10.82" height="17.7" x="-5.41" y="-8.85" fill="none" rx="0" ry="0" transform="translate(551.5 644.09)"></rect><path fill="#e4e4e4" d="M575.867 647.845q0 1.46-.72 2.48-.73 1.03-2.03 1.57-1.3.54-3.07.54-.93 0-1.76-.09t-1.53-.26q-.69-.17-1.22-.41v-1.83q.84.34 2.05.64 1.22.3 2.54.3 1.24 0 2.09-.33.85-.33 1.3-.96.44-.62.44-1.5 0-.84-.37-1.41-.37-.56-1.23-1.03-.86-.46-2.34-.99-1.05-.37-1.84-.82-.8-.44-1.34-1t-.81-1.3q-.28-.75-.28-1.7 0-1.31.67-2.25t1.85-1.44q1.19-.5 2.73-.5 1.31 0 2.43.25 1.11.24 2.05.66l-.6 1.64q-.89-.37-1.88-.62-.99-.24-2.05-.24-1.05 0-1.78.3-.72.31-1.11.87-.38.57-.38 1.34 0 .87.37 1.44.36.57 1.17 1.01.8.45 2.12.93 1.45.53 2.46 1.12 1.01.59 1.54 1.44.53.84.53 2.15"></path><rect width="10.33" height="16.88" x="-5.17" y="-8.44" fill="none" rx="0" ry="0" transform="translate(571.2 644.5)"></rect><path fill="#e4e4e4" d="M589.097 639.905v12.31h-1.53l-.27-1.73h-.1q-.38.64-.99 1.07-.6.44-1.36.66-.76.22-1.61.22-1.46 0-2.45-.47-.99-.47-1.49-1.46t-.5-2.54v-8.06h1.89v7.93q0 1.53.69 2.29.7.76 2.13.76 1.37 0 2.18-.52.81-.51 1.17-1.52.36-1 .36-2.46v-6.48Z"></path><rect width="10.3" height="12.53" x="-5.15" y="-6.26" fill="none" rx="0" ry="0" transform="translate(584.45 646.67)"></rect><path fill="#e4e4e4" d="M598.817 639.675q2.31 0 3.68 1.59 1.37 1.58 1.37 4.76 0 2.1-.63 3.52-.63 1.43-1.77 2.16-1.14.73-2.69.73-.98 0-1.72-.26t-1.27-.69q-.53-.44-.87-.96h-.14q.04.44.09 1.06.05.61.05 1.07v5.06h-1.88v-17.81h1.54l.25 1.82h.09q.36-.57.87-1.03.52-.47 1.27-.74.74-.28 1.76-.28m-.32 1.57q-1.28 0-2.06.5-.78.49-1.14 1.48-.36.98-.38 2.46v.36q0 1.56.34 2.64t1.13 1.64q.8.56 2.13.56 1.15 0 1.91-.62t1.14-1.72q.38-1.11.38-2.55 0-2.17-.85-3.46t-2.6-1.29"></path><rect width="10.83" height="18.04" x="-5.42" y="-9.02" fill="none" rx="0" ry="0" transform="translate(598.95 649.2)"></rect><path fill="#e4e4e4" d="M612.897 639.675q2.3 0 3.67 1.59 1.37 1.58 1.37 4.76 0 2.1-.63 3.52-.63 1.43-1.77 2.16-1.14.73-2.69.73-.98 0-1.72-.26t-1.27-.69q-.52-.44-.87-.96h-.14q.04.44.09 1.06.05.61.05 1.07v5.06h-1.88v-17.81h1.54l.25 1.82h.09q.36-.57.87-1.03.52-.47 1.27-.74.74-.28 1.77-.28m-.33 1.57q-1.28 0-2.06.5-.78.49-1.14 1.48-.36.98-.38 2.46v.36q0 1.56.34 2.64t1.14 1.64q.79.56 2.12.56 1.15 0 1.91-.62.77-.62 1.14-1.72.38-1.11.38-2.55 0-2.17-.85-3.46t-2.6-1.29"></path><rect width="10.83" height="18.04" x="-5.42" y="-9.02" fill="none" rx="0" ry="0" transform="translate(613.02 649.2)"></rect><path fill="#e4e4e4" d="M623.057 652.215h-1.88v-17.48h1.88Z"></path><rect width="1.88" height="17.48" x="-.94" y="-8.74" fill="none" rx="0" ry="0" transform="translate(622.62 643.98)"></rect><path fill="#e4e4e4" d="M625.047 639.905h2l2.71 7.14q.24.63.44 1.21.2.57.36 1.1.16.53.25 1.02h.08q.15-.56.45-1.47.29-.92.63-1.87l2.57-7.13h2.01l-5.36 14.11q-.43 1.14-.99 1.98-.57.84-1.38 1.3-.81.45-1.95.45-.53 0-.93-.06-.41-.06-.7-.14v-1.49q.25.05.6.1.35.04.74.04.69 0 1.2-.26.51-.27.88-.77.37-.51.64-1.2l.68-1.73Z"></path><rect width="11.5" height="17.84" x="-5.75" y="-8.92" fill="none" rx="0" ry="0" transform="translate(631.3 649.33)"></rect><path fill="#e4e4e4" d="m640.087 635.795-.43 5.93h-1.18l-.42-5.93Zm4.11 0-.42 5.93h-1.18l-.41-5.93Z"></path><rect width="6.14" height="5.93" x="-3.07" y="-2.96" fill="none" rx="0" ry="0" transform="translate(641.63 639.26)"></rect><path stroke="#e4e4e4" stroke-width="5" d="M388.736 605.593h100"></path></svg></svg>