<svg xmlns="http://www.w3.org/2000/svg" version="1.1" xmlns:xlink="http://www.w3.org/1999/xlink" width="1500" height="375" viewBox="0 0 1500 375"><svg xml:space="preserve" width="1500" height="375" data-version="2" data-id="lg_MyYHVvilEiMKmRWqX0" viewBox="0 0 768 375" x="0" y="0"><rect width="100%" height="100%" fill="transparent"></rect><path fill="#001f3e" d="M282.204 102.535H158.9v69.025h123.305zm-119.973 65.392v-61.76h51.943l-47.679 61.76zm19.59 0 47.68-61.76h12.3l-47.664 61.76zm97.044 0h-76.588l47.664-61.76h28.931v61.76z"></path><path fill="#001f3e" d="M340.528 101.357v-32.36c0-65.391-59.986-65.391-59.986-65.391h-119.98s-59.987 0-59.987 65.392v32.359h-11.39v20.584h11.39v175.934c0 65.392 119.973 65.392 119.973 65.392s119.98 0 119.98-65.392V121.941h11.383v-20.584zm-53.314 75.656H153.897v-79.93h133.317zM22.765 304.603H7.375v-79.8h17.56l25.42 59.73 25.42-59.73h17.56v79.8h-15.39v-51.53l-21.55 51.53h-12.08l-21.55-51.53Z"></path><rect width="85.96" height="79.8" x="-42.98" y="-39.9" fill="none" rx="0" ry="0" transform="translate(50.85 265.2)"></rect><g transform="translate(143.95 279.1)"><linearGradient id="a" x1="-1.69" x2="3.99" y1="0" y2="0" gradientUnits="objectBoundingBox"><stop offset="0%" stop-color="#8c8c8c"></stop><stop offset="49.8%" stop-color="#fff"></stop><stop offset="100%" stop-color="#8c8c8c"></stop></linearGradient><path fill="url(#a)" d="M173.77 478.59q-7.65 0-13.46-3.37-5.82-3.36-9.03-9.38-3.21-6.02-3.21-13.87 0-7.55 3.21-13.36 3.21-5.82 8.82-9.13 5.61-3.32 12.85-3.32 7.35 0 12.96 3.16 5.61 3.17 8.72 8.83 3.11 5.66 3.11 13.21 0 1.12-.15 2.49-.16 1.38-.36 2.91h-35.09q.41 3.27 2.09 5.56 1.69 2.3 4.18 3.57 2.5 1.28 5.67 1.28 3.77 0 6.78-1.53 3.01-1.53 4.33-4.19l11.53 3.47q-3.06 6.53-9.08 10.1-6.02 3.57-13.87 3.57m9.69-31.31q-.1-2.86-1.53-5.16-1.43-2.29-3.77-3.57-2.35-1.27-5.21-1.27-2.55 0-4.79 1.27-2.24 1.28-3.83 3.52-1.58 2.25-2.09 5.21Z" transform="translate(-172.9 -452.38)"></path></g><rect width="49.67" height="52.43" x="-24.84" y="-26.21" fill="none" rx="0" ry="0" transform="translate(144.45 279.6)"></rect><g transform="translate(202.6 272.14)"><linearGradient id="b" x1="-3.67" x2="4.46" y1="0" y2="0" gradientUnits="objectBoundingBox"><stop offset="0%" stop-color="#8c8c8c"></stop><stop offset="49.8%" stop-color="#fff"></stop><stop offset="100%" stop-color="#8c8c8c"></stop></linearGradient><path fill="url(#b)" d="M222.93 426.88V412.6h13.16v14.28h11.32v11.52h-11.32v20.71q0 3.98 1.74 5.61 1.73 1.63 4.33 1.73 2.6.1 5.25-.3v11.22q-4.69 1.02-9.13.61-4.43-.41-7.9-2.4-3.47-1.99-5.46-6.07-1.99-4.08-1.99-10.4V438.4h-7.24v-11.52Z" transform="translate(-231.55 -445.42)"></path></g><rect width="31.72" height="65.64" x="-15.86" y="-32.82" fill="none" rx="0" ry="0" transform="translate(203.1 272.64)"></rect><g transform="translate(260.28 279.05)"><linearGradient id="c" x1="-3.52" x2="2.35" y1="0" y2="0" gradientUnits="objectBoundingBox"><stop offset="0%" stop-color="#8c8c8c"></stop><stop offset="49.8%" stop-color="#fff"></stop><stop offset="100%" stop-color="#8c8c8c"></stop></linearGradient><path fill="url(#c)" d="m299.43 477.88-1.02-6.23q-2.55 3.17-5.76 5-3.21 1.84-8.62 1.84-5.1 0-8.92-1.79-3.83-1.78-5.97-5-2.14-3.21-2.14-7.59 0-6.43 4.64-10.66 4.64-4.24 14.02-5.36l12.75-1.43v-3.57q0-2.14-1.94-3.97-1.93-1.84-6.12-1.84-3.67 0-6.37 1.78-2.7 1.79-3.62 5.36l-11.22-4.08q2.04-6.83 7.75-10.51 5.71-3.67 14.08-3.67 10.2 0 15.35 5.05t5.15 13.31v33.36Zm-1.02-22.14-11.01 1.43q-3.37.41-5.1 1.99-1.74 1.58-1.74 3.82 0 2.15 1.74 3.62 1.73 1.48 4.89 1.48 3.57 0 6.07-1.32 2.5-1.33 3.83-3.88 1.32-2.55 1.32-6.32Z" transform="translate(-289.24 -452.32)"></path></g><rect width="44.47" height="52.33" x="-22.23" y="-26.16" fill="none" rx="0" ry="0" transform="translate(260.78 279.55)"></rect><g transform="translate(313.73 267.88)"><linearGradient id="d" x1="-7.86" x2="3.09" y1="0" y2="0" gradientUnits="objectBoundingBox"><stop offset="0%" stop-color="#8c8c8c"></stop><stop offset="49.8%" stop-color="#fff"></stop><stop offset="100%" stop-color="#8c8c8c"></stop></linearGradient><path fill="url(#d)" d="M336.15 404.44h13.06v73.44h-13.06Z" transform="translate(-342.68 -441.16)"></path></g><rect width="13.06" height="73.44" x="-6.53" y="-36.72" fill="none" rx="0" ry="0" transform="translate(314.23 268.38)"></rect><path fill="#001f3e" d="M414.955 249.833q9 0 13.62 4.62 4.62 4.61 4.62 14.8v34.53h-14.5v-30.93q0-5.69-1.94-8.58-1.94-2.88-6.01-2.88-5.73 0-8.15 4.09-2.41 4.1-2.41 11.72v26.58h-14.45v-30.93q0-3.79-.85-6.35-.86-2.56-2.61-3.84-1.75-1.27-4.5-1.27-4.02 0-6.32 2.01-2.3 2.01-3.27 5.92-.97 3.91-.97 9.54v24.92h-14.45v-52.96h11.04l1.94 6.78h.81q1.61-2.75 4.05-4.46 2.44-1.7 5.37-2.51 2.94-.8 5.97-.8 5.83 0 9.88 1.89 4.05 1.9 6.22 5.88h1.28q2.37-4.08 6.7-5.92 4.34-1.85 8.93-1.85"></path><rect width="80.43" height="53.95" x="-40.22" y="-26.98" fill="none" rx="0" ry="0" transform="translate(393.48 277.3)"></rect><path fill="#001f3e" d="M469.705 249.733q10.66 0 16.35 4.65 5.68 4.64 5.68 14.11v35.29h-10.09l-2.79-7.2h-.38q-2.28 2.84-4.64 4.64-2.37 1.8-5.45 2.65-3.08.85-7.48.85-4.69 0-8.41-1.8-3.72-1.8-5.85-5.52-2.13-3.71-2.13-9.44 0-8.43 5.92-12.44 5.92-4 17.76-4.43l9.19-.28v-2.32q0-4.17-2.18-6.11-2.18-1.94-6.06-1.94-3.84 0-7.53 1.09-3.7 1.09-7.39 2.74l-4.79-9.75q4.22-2.23 9.45-3.51 5.24-1.28 10.82-1.28m7.68 29.51-5.59.19q-7.01.19-9.73 2.51-2.73 2.32-2.73 6.11 0 3.32 1.94 4.71 1.95 1.4 5.07 1.4 4.64 0 7.84-2.75 3.2-2.74 3.2-7.81Z"></path><rect width="47.22" height="54.99" x="-23.61" y="-27.5" fill="none" rx="0" ry="0" transform="translate(468.63 277.73)"></rect><path fill="#001f3e" d="M536.685 249.833q8.47 0 13.64 4.62 5.16 4.61 5.16 14.8v34.53h-14.45v-30.93q0-5.69-2.06-8.58-2.06-2.88-6.46-2.88-6.63 0-9.05 4.49-2.41 4.5-2.41 12.98v24.92h-14.45v-52.96h11.04l1.94 6.78h.8q1.71-2.75 4.24-4.46 2.54-1.7 5.64-2.51 3.1-.8 6.42-.8"></path><rect width="48.88" height="53.95" x="-24.44" y="-26.98" fill="none" rx="0" ry="0" transform="translate(531.54 277.3)"></rect><path fill="#001f3e" d="M587.125 304.723q-8.86 0-14.42-6.94-5.57-6.93-5.57-20.39 0-13.59 5.64-20.58 5.63-6.98 14.73-6.98 3.79 0 6.68 1.04 2.88 1.04 4.99 2.79 2.11 1.76 3.58 3.94h.47q-.28-1.52-.68-4.48-.41-2.96-.41-6.09v-16.95h14.5v73.7h-11.09l-2.79-6.87h-.62q-1.37 2.18-3.43 3.95-2.06 1.78-4.9 2.82-2.85 1.04-6.68 1.04m5.07-11.51q5.92 0 8.36-3.53 2.43-3.52 2.58-10.63v-1.56q0-7.72-2.37-11.82-2.37-4.1-8.81-4.1-4.78 0-7.48 4.13-2.7 4.12-2.7 11.88 0 7.77 2.72 11.7 2.72 3.93 7.7 3.93"></path><rect width="49.5" height="74.64" x="-24.75" y="-37.32" fill="none" rx="0" ry="0" transform="translate(592.38 267.9)"></rect><path fill="#001f3e" d="M680.335 250.823v52.96h-11.08l-1.95-6.78h-.75q-1.71 2.7-4.27 4.41-2.55 1.7-5.63 2.51-3.08.8-6.4.8-5.68 0-9.9-2.01-4.21-2.01-6.56-6.28-2.34-4.26-2.34-11.08v-34.53h14.45v30.93q0 5.68 2.03 8.57 2.04 2.89 6.49 2.89 4.41 0 6.92-2.01t3.53-5.92q1.01-3.91 1.01-9.54v-24.92Z"></path><rect width="48.88" height="53.9" x="-24.44" y="-26.95" fill="none" rx="0" ry="0" transform="translate(656.4 278.27)"></rect><path fill="#001f3e" d="M694.065 303.133q0-1.06.52-1.51.51-.44 1.25-.44.78 0 1.3.44.53.45.53 1.51 0 1.04-.53 1.52-.52.48-1.3.48-.74 0-1.25-.48-.52-.48-.52-1.52"></path><rect width="3.6" height="3.95" x="-1.8" y="-1.98" fill="none" rx="0" ry="0" transform="translate(696.37 303.66)"></rect><path fill="#001f3e" d="M709.235 305.003q-2.24 0-3.95-.92t-2.67-2.81q-.95-1.9-.95-4.77 0-3.01 1.01-4.93 1-1.91 2.78-2.84 1.77-.92 4.02-.92 1.24 0 2.4.25t1.9.63l-.76 2.1q-.75-.3-1.74-.54-1-.25-1.86-.25-1.72 0-2.87.75-1.14.74-1.71 2.18-.57 1.43-.57 3.54 0 2.01.56 3.43.55 1.43 1.65 2.18 1.09.75 2.74.75 1.32 0 2.38-.29 1.06-.28 1.92-.65v2.24q-.83.42-1.85.65-1.02.22-2.43.22"></path><rect width="12.11" height="17.19" x="-6.05" y="-8.6" fill="none" rx="0" ry="0" transform="translate(708.22 296.9)"></rect><path fill="#001f3e" d="M731.745 296.383q0 2.04-.53 3.64-.53 1.61-1.53 2.71-1 1.11-2.42 1.69-1.41.58-3.2.58-1.66 0-3.05-.58-1.38-.58-2.39-1.69-1.01-1.1-1.56-2.71-.55-1.6-.55-3.64 0-2.73.92-4.64.93-1.92 2.64-2.92 1.72-1.01 4.1-1.01 2.27 0 3.97 1.01 1.71 1.02 2.65 2.93.95 1.92.95 4.63m-12.63 0q0 1.99.53 3.46t1.64 2.27q1.1.81 2.84.81 1.73 0 2.84-.81 1.11-.8 1.64-2.27.53-1.47.53-3.46t-.53-3.43q-.53-1.45-1.63-2.23-1.11-.79-2.86-.79-2.59 0-3.79 1.71-1.21 1.71-1.21 4.74"></path><rect width="15.23" height="17.19" x="-7.62" y="-8.6" fill="none" rx="0" ry="0" transform="translate(724.63 296.9)"></rect><path fill="#001f3e" d="M754.095 287.813q2.74 0 4.14 1.43 1.39 1.43 1.39 4.59v10.87h-2.48v-10.75q0-2.01-.87-3.01-.87-1.01-2.58-1.01-2.41 0-3.5 1.39-1.09 1.39-1.09 4.1v9.28h-2.5v-10.75q0-1.34-.38-2.24-.39-.89-1.15-1.33-.77-.45-1.93-.45-1.65 0-2.65.68t-1.45 2.02q-.45 1.34-.45 3.29v8.78h-2.51v-16.59h2.03l.38 2.35h.13q.5-.86 1.26-1.45.76-.6 1.7-.9.93-.3 1.99-.3 1.9 0 3.18.7 1.27.71 1.85 2.15h.14q.81-1.44 2.24-2.15 1.42-.7 3.11-.7"></path><rect width="23.54" height="16.89" x="-11.77" y="-8.45" fill="none" rx="0" ry="0" transform="translate(748.36 296.76)"></rect></svg></svg>